<?xml version="1.0" standalone="no"?><!DOCTYPE svg PUBLIC "-//W3C//DTD SVG 1.1//EN" "http://www.w3.org/Graphics/SVG/1.1/DTD/svg11.dtd"><svg xmlns="http://www.w3.org/2000/svg" version="1.1" width="633.333" height="187.25" xmlns:xlink="http://www.w3.org/1999/xlink" xlink="http://www.w3.org/1999/xlink" style="position:relative;overflow:hidden;" viewBox="37.5 -8.083 633.333 187.25"><defs/><g><g width="150" height="145.583" transform="scale(1,1) translate(50,4.417)"><g stroke="#6E6E6E" stroke-opacity="1" stroke-width="1" stroke-dasharray="none" width="150" height="145.583" transform="scale(1,1) translate(0,0)" fill="#FFFFFF" fill-opacity="1"><rect width="150" height="145.583"/></g><g transform="scale(1,1) translate(0,0)" fill="#B7DDE8" opacity="1" stroke="#B7DDE8"><path d="M0.5,0.5 L149.5,0.5 L149.5,29.287 L0.5,29.287 z" stroke-width="0" stroke-dasharray="none"/></g><g transform="scale(1,1) translate(0,0)" fill="#FFFFFF" opacity="1" stroke="#FFFFFF"><path d="M0.5,29.287 L149.5,29.287 L149.5,87.185 L0.5,87.185 z M0.5,87.185 L149.5,87.185 L149.5,145.083 L0.5,145.083 z" stroke-width="0" stroke-dasharray="none"/></g><g width="141" height="19.787285564240882" transform="scale(1,1) translate(4.5,4.5)"><text width="141" height="15.624999046325684" transform="scale(1,1) translate(0,2.0811432589575993)" xml:space="preserve"><tspan xml:space="preserve" text-rendering="optimizeSpeed" font-size="13.88888888888889" font-weight="normal" font-style="normal" text-decoration="none" fill="#000000" opacity="1" x="54.289" text-anchor="start" y="12.5" textLength="32.421875" style="font-family: Verdana, Geneva, sans-serif;">Topic</tspan></text></g><g width="141" height="48.89802377527099" transform="scale(1,1) translate(4.5,33.287)"><text width="141" height="25" transform="scale(1,1) translate(0,0)" xml:space="preserve"><tspan xml:space="preserve" text-rendering="optimizeSpeed" font-size="11.11111111111111" font-weight="normal" font-style="normal" text-decoration="none" fill="#000000" opacity="1" x="0" text-anchor="start" y="10.417" textLength="30.843097686767578" style="font-family: Verdana, Geneva, sans-serif;">id (pk)</tspan><tspan xml:space="preserve" text-rendering="optimizeSpeed" font-size="11.11111111111111" font-weight="normal" font-style="normal" text-decoration="none" fill="#000000" opacity="1" x="0" text-anchor="start" y="22.917" textLength="103.04361724853516" style="font-family: Verdana, Geneva, sans-serif;">name (text, required)</tspan></text></g><g width="141" height="51.666666666666664" transform="scale(1,1) translate(4.5,93.833)"><text width="141" height="12.5" transform="scale(1,1) translate(0,0)" xml:space="preserve"/></g><g transform="scale(1,1) translate(0,0)" fill="#6E6E6E" stroke="#6E6E6E" stroke-opacity="1"><path d="M0.5,28.787 L149.5,28.787" fill="none" stroke-width="1" stroke-dasharray="none"/><g><g stroke-dasharray="none"><path d="M-0.5,27.787L1.5,27.787L1.5,29.787L-0.5,29.787z" stroke-width="0" fill="none"/></g></g></g><g transform="scale(1,1) translate(0,0)" fill="#6E6E6E" stroke="#6E6E6E" stroke-opacity="1"><path d="M0.5,86.685 L149.5,86.685" fill="none" stroke-width="1" stroke-dasharray="none"/><g><g stroke-dasharray="none"><path d="M-0.5,85.685L1.5,85.685L1.5,87.685L-0.5,87.685z" stroke-width="0" fill="none"/></g></g></g><g stroke="white" fill="none" opacity="0" stroke-width="3" stroke-dasharray="none" width="3" height="149" transform="scale(1,1) translate(3.5,0.5)"><rect width="3" height="149"/></g><g stroke="white" fill="none" opacity="0" stroke-width="3" stroke-dasharray="none" width="149" height="3" transform="scale(1,1) translate(0.5,3.5)"><rect width="149" height="3"/></g></g><g width="150" height="150" transform="scale(1,1) translate(275,8.333)"><g stroke="#6E6E6E" stroke-opacity="1" stroke-width="1" stroke-dasharray="none" width="150" height="150" transform="scale(1,1) translate(0,0)" fill="#FFFFFF" fill-opacity="1"><rect width="150" height="150"/></g><g transform="scale(1,1) translate(0,0)" fill="#B7DDE8" opacity="1" stroke="#B7DDE8"><path d="M0.5,0.5 L149.5,0.5 L149.5,30.167 L0.5,30.167 z" stroke-width="0" stroke-dasharray="none"/></g><g transform="scale(1,1) translate(0,0)" fill="#FFFFFF" opacity="1" stroke="#FFFFFF"><path d="M0.5,30.167 L149.5,30.167 L149.5,89.833 L0.5,89.833 z M0.5,89.833 L149.5,89.833 L149.5,149.5 L0.5,149.5 z" stroke-width="0" stroke-dasharray="none"/></g><g width="141" height="20.666666666666664" transform="scale(1,1) translate(4.5,4.5)"><text width="141" height="15.624999046325684" transform="scale(1,1) translate(0,2.5208338101704904)" xml:space="preserve"><tspan xml:space="preserve" text-rendering="optimizeSpeed" font-size="13.88888888888889" font-weight="normal" font-style="normal" text-decoration="none" fill="#000000" opacity="1" x="38.859" text-anchor="start" y="12.5" textLength="63.281246185302734" style="font-family: Verdana, Geneva, sans-serif;">Document</tspan></text></g><g width="141" height="51.666666666666664" transform="scale(1,1) translate(4.5,93.833)"><text width="141" height="12.5" transform="scale(1,1) translate(0,0)" xml:space="preserve"/></g><g transform="scale(1,1) translate(0,0)" fill="#6E6E6E" stroke="#6E6E6E" stroke-opacity="1"><path d="M0.5,29.667 L149.5,29.667" fill="none" stroke-width="1" stroke-dasharray="none"/><g><g stroke-dasharray="none"><path d="M-0.5,28.667L1.5,28.667L1.5,30.667L-0.5,30.667z" stroke-width="0" fill="none"/></g></g></g><g transform="scale(1,1) translate(0,0)" fill="#6E6E6E" stroke="#6E6E6E" stroke-opacity="1"><path d="M0.5,89.333 L149.5,89.333" fill="none" stroke-width="1" stroke-dasharray="none"/><g><g stroke-dasharray="none"><path d="M-0.5,88.333L1.5,88.333L1.5,90.333L-0.5,90.333z" stroke-width="0" fill="none"/></g></g></g><g stroke="white" fill="none" opacity="0" stroke-width="3" stroke-dasharray="none" width="3" height="149" transform="scale(1,1) translate(3.5,0.5)"><rect width="3" height="149"/></g><g stroke="white" fill="none" opacity="0" stroke-width="3" stroke-dasharray="none" width="149" height="3" transform="scale(1,1) translate(0.5,3.5)"><rect width="149" height="3"/></g><g width="141" height="50.666666666666664" transform="scale(1,1) translate(4.5,34.167)"><text width="141" height="37.5" transform="scale(1,1) translate(0,0)" xml:space="preserve"><tspan xml:space="preserve" text-rendering="optimizeSpeed" font-size="11.11111111111111" font-weight="normal" font-style="normal" text-decoration="none" fill="#000000" opacity="1" x="0" text-anchor="start" y="10.417" textLength="92.54557037353516" style="font-family: Verdana, Geneva, sans-serif;">title (text, required)</tspan><tspan xml:space="preserve" text-rendering="optimizeSpeed" font-size="11.11111111111111" font-weight="normal" font-style="normal" text-decoration="none" fill="#000000" opacity="1" x="0" text-anchor="start" y="22.917" textLength="111.68619537353516" style="font-family: Verdana, Geneva, sans-serif;">content (text, required)</tspan><tspan xml:space="preserve" text-rendering="optimizeSpeed" font-size="11.11111111111111" font-weight="normal" font-style="normal" text-decoration="none" fill="#000000" opacity="1" x="0" text-anchor="start" y="35.417" textLength="82.080078125" style="font-family: Verdana, Geneva, sans-serif;">is_deleted (bool)</tspan></text></g></g><g width="75" height="6.125" transform="scale(1,1) translate(200,77.208)"><g transform="scale(1,1) translate(0,0)" fill="#000000" stroke="#000000" stroke-opacity="1"><path d="M75,6.125 L50,6.125 L50,0 L0,0" fill="none" stroke-width="1" stroke-dasharray="none"/><g><g stroke-dasharray="none"><path d="M74,5.125L76,5.125L76,7.125L74,7.125z" stroke-width="0" fill="none"/></g></g></g></g><g width="20.85" height="16.667" transform="scale(1,1) translate(249.15,61.667)"><g stroke="#545454" stroke-opacity="1" stroke-width="0" stroke-dasharray="none" width="20.85" height="16.667" transform="scale(1,1) translate(0,0)" fill="none"><rect width="20.85" height="16.667"/></g><g width="20.849609375" height="16.66666666666667" transform="scale(1,1) translate(0,0)"><text width="20.849609375" height="15.624999046325684" transform="scale(1,1) translate(0,0.5208338101704939)" xml:space="preserve"><tspan xml:space="preserve" text-rendering="optimizeSpeed" font-size="13.88888888888889" font-weight="normal" font-style="normal" text-decoration="none" fill="#333333" opacity="1" x="0" text-anchor="start" y="12.5" textLength="20.849609375" style="font-family: Arial, Helvetica Neue, Helvetica, sans-serif;">0..*</tspan></text></g></g><g width="20.85" height="15.625" transform="scale(1,1) translate(205,56.583)"><g stroke="#545454" stroke-opacity="1" stroke-width="0" stroke-dasharray="none" width="20.85" height="15.625" transform="scale(1,1) translate(0,0)" fill="none"><rect width="20.85" height="15.625"/></g><g width="20.849609375" height="15.624999046325684" transform="scale(1,1) translate(0,0)"><text width="20.849609375" height="15.624999046325684" transform="scale(1,1) translate(0,0)" xml:space="preserve"><tspan xml:space="preserve" text-rendering="optimizeSpeed" font-size="13.88888888888889" font-weight="normal" font-style="normal" text-decoration="none" fill="#333333" opacity="1" x="0" text-anchor="start" y="12.5" textLength="20.849609375" style="font-family: Arial, Helvetica Neue, Helvetica, sans-serif;">0..*</tspan></text></g></g><g width="83.333" height="8.333" transform="scale(1,1) translate(425,83.333)"><g transform="scale(1,1) translate(0,0)" fill="#000000" stroke="#000000" stroke-opacity="1"><path d="M0,0 L25,0 L25,8.333 L83.333,8.333" fill="none" stroke-width="1" stroke-dasharray="none"/><g><g stroke-dasharray="none"><path d="M-1,-1L1,-1L1,1L-1,1z" stroke-width="0" fill="none"/></g></g></g></g><g width="20.85" height="15.625" transform="scale(1,1) translate(430,62.708)"><g stroke="#545454" stroke-opacity="1" stroke-width="0" stroke-dasharray="none" width="20.85" height="15.625" transform="scale(1,1) translate(0,0)" fill="none"><rect width="20.85" height="15.625"/></g><g width="20.849609375" height="15.624999046325684" transform="scale(1,1) translate(0,0)"><text width="20.849609375" height="15.624999046325684" transform="scale(1,1) translate(0,0)" xml:space="preserve"><tspan xml:space="preserve" text-rendering="optimizeSpeed" font-size="13.88888888888889" font-weight="normal" font-style="normal" text-decoration="none" fill="#333333" opacity="1" x="0" text-anchor="start" y="12.5" textLength="20.849609375" style="font-family: Arial, Helvetica Neue, Helvetica, sans-serif;">0..*</tspan></text></g></g><g width="19.287" height="15.625" transform="scale(1,1) translate(484.046,71.042)"><g stroke="#545454" stroke-opacity="1" stroke-width="0" stroke-dasharray="none" width="19.287" height="15.625" transform="scale(1,1) translate(0,0)" fill="none"><rect width="19.287" height="15.625"/></g><g width="19.287108182907104" height="15.624999046325684" transform="scale(1,1) translate(0,0)"><text width="19.287108182907104" height="15.624999046325684" transform="scale(1,1) translate(0,0)" xml:space="preserve"><tspan xml:space="preserve" text-rendering="optimizeSpeed" font-size="13.88888888888889" font-weight="normal" font-style="normal" text-decoration="none" fill="#333333" opacity="1" x="1.921" text-anchor="start" y="12.5" textLength="11.572265625" style="font-family: Arial, Helvetica Neue, Helvetica, sans-serif;"> 1</tspan></text></g></g><g width="150" height="150" transform="scale(1,1) translate(508.333,16.667)"><g stroke="#6E6E6E" stroke-opacity="1" stroke-width="1" stroke-dasharray="none" width="150" height="150" transform="scale(1,1) translate(0,0)" fill="#FFFFFF" fill-opacity="1"><rect width="150" height="150"/></g><g transform="scale(1,1) translate(0,0)" fill="#B7DDE8" opacity="1" stroke="#B7DDE8"><path d="M0.5,0.5 L149.5,0.5 L149.5,30.167 L0.5,30.167 z" stroke-width="0" stroke-dasharray="none"/></g><g transform="scale(1,1) translate(0,0)" fill="#FFFFFF" opacity="1" stroke="#FFFFFF"><path d="M0.5,30.167 L149.5,30.167 L149.5,89.833 L0.5,89.833 z M0.5,89.833 L149.5,89.833 L149.5,149.5 L0.5,149.5 z" stroke-width="0" stroke-dasharray="none"/></g><g width="141" height="20.666666666666664" transform="scale(1,1) translate(4.5,4.5)"><text width="141" height="15.624999046325684" transform="scale(1,1) translate(0,2.5208338101704904)" xml:space="preserve"><tspan xml:space="preserve" text-rendering="optimizeSpeed" font-size="13.88888888888889" font-weight="normal" font-style="normal" text-decoration="none" fill="#000000" opacity="1" x="51.205" text-anchor="start" y="12.5" textLength="38.590492248535156" style="font-family: Verdana, Geneva, sans-serif;">Folder</tspan></text></g><g width="141" height="50.666666666666664" transform="scale(1,1) translate(4.5,34.167)"><text width="141" height="25" transform="scale(1,1) translate(0,0)" xml:space="preserve"><tspan xml:space="preserve" text-rendering="optimizeSpeed" font-size="11.11111111111111" font-weight="normal" font-style="normal" text-decoration="none" fill="#000000" opacity="1" x="0" text-anchor="start" y="10.417" textLength="103.04361724853516" style="font-family: Verdana, Geneva, sans-serif;">name (text, required)</tspan><tspan xml:space="preserve" text-rendering="optimizeSpeed" font-size="11.11111111111111" font-weight="normal" font-style="normal" text-decoration="none" fill="#000000" opacity="1" x="0" text-anchor="start" y="22.917" textLength="100.60221099853516" style="font-family: Verdana, Geneva, sans-serif;">is_deleted (boolean)</tspan></text></g><g width="141" height="51.666666666666664" transform="scale(1,1) translate(4.5,93.833)"><text width="141" height="12.5" transform="scale(1,1) translate(0,0)" xml:space="preserve" style="user-select: none; -webkit-user-drag: none; -webkit-tap-highlight-color: rgba(0, 0, 0, 0);"/><line visibility="visible" fill="none" stroke-width="1.0416666666666667" stroke="#000" x1="0" y1="0" x2="0" y2="12.5"/></g><g transform="scale(1,1) translate(0,0)" fill="#6E6E6E" stroke="#6E6E6E" stroke-opacity="1"><path d="M0.5,29.667 L149.5,29.667" fill="none" stroke-width="1" stroke-dasharray="none"/><g><g stroke-dasharray="none"><path d="M-0.5,28.667L1.5,28.667L1.5,30.667L-0.5,30.667z" stroke-width="0" fill="none"/></g></g></g><g transform="scale(1,1) translate(0,0)" fill="#6E6E6E" stroke="#6E6E6E" stroke-opacity="1"><path d="M0.5,89.333 L149.5,89.333" fill="none" stroke-width="1" stroke-dasharray="none"/><g><g stroke-dasharray="none"><path d="M-0.5,88.333L1.5,88.333L1.5,90.333L-0.5,90.333z" stroke-width="0" fill="none"/></g></g></g><g stroke="white" fill="none" opacity="0" stroke-width="3" stroke-dasharray="none" width="3" height="149" transform="scale(1,1) translate(3.5,0.5)"><rect width="3" height="149"/></g><g stroke="white" fill="none" opacity="0" stroke-width="3" stroke-dasharray="none" width="149" height="3" transform="scale(1,1) translate(0.5,3.5)"><rect width="149" height="3"/></g></g></g></svg>